<svg xmlns="http://www.w3.org/2000/svg" width="1933.867" height="54.925" viewBox="0 0 1933.867 54.925">
  <path id="Path_38" data-name="Path 38" d="M-24.667,261.333s125.067,7.2,155.333-15.067,23.2,28.4,56.933,15.067,52.267-44.4,70.133-7.067,28.533-12.4,28.533-21.333,8.8,34.667,22.133,28.4,39.2-26.533,63.2-15.067,38.133,15.067,38.133,15.067,51.6.933,51.6-28.4,5.467,34.667,43.6,28.4,40-28.4,40-28.4,9.6,33.733,24.8,28.4,30.133-24,64-21.333-62.267,42.8,77.333,14.267,64.933,0,64.933,0,76.4,10.667,73.733-8,12.533,13.333,44.533,8S1020.4,256.933,980.4,240s55.2,5.467,73.867,14.267,84.4-3.733,63.067-23.2,59.6,23.2,59.6,23.2,32,10.533,88-23.2,41.733,23.2,41.733,23.2,60.4,6.267,92.4-8S1428.4,192,1484.4,240s109.333,0,109.333,0,5.333-26.533,94.267,6.267S1840.933,240,1840.933,240s30.534-5.585,67.2,14.267" transform="translate(24.782 -215.062)" fill="none" stroke="#fcc92c" stroke-width="4"/>
</svg>
