<?xml version="1.0" encoding="UTF-8"?><svg xmlns="http://www.w3.org/2000/svg" viewBox="0 0 559.1 235.34"><defs><style>.cls-1{fill:#2a3388;}.cls-2{fill:#419249;}.cls-3{fill:#ecf214;}.cls-4{fill:#f48e6e;}.cls-5{fill:#cf3681;}.cls-6{fill:#5b0e07;}.cls-7{fill:#dc5f35;}.cls-8{fill:#8a1b56;}</style></defs><g id="Logo"><polygon class="cls-4" points="94.78 101.28 109.11 115.61 145.33 80.39 113.03 50.62 94.78 101.28"/><polygon class="cls-6" points="120.44 126.1 156.06 91.09 232.35 166.38 196.33 202.4 120.44 126.1"/><polygon points="132.59 44.62 199.77 112.75 211.31 101.21 141.89 31.8 132.59 44.62"/><polygon points="153.64 22.97 220.82 91.09 232.35 79.56 162.94 10.14 153.64 22.97"/><polygon points="175.3 1.72 242.47 69.84 254.01 58.31 196.06 .36 175.3 1.72"/><path class="cls-8" d="m220.16,226.32l-13.71-13.4,36.63-35.21,22.15,21.97s-18.96,17.13-45.07,26.65Z"/><polygon class="cls-3" points="259.4 172.39 254.01 166.78 277.71 143.1 268.58 177.71 259.4 172.39"/><polygon class="cls-5" points="277.71 120.24 243.08 155.65 210.09 123.27 270 64.18 283.76 117.67 279.91 117.67 277.71 120.24"/><polygon class="cls-7" points="270.28 81.63 219.6 132.18 215.78 128.35 268.15 77.04 274.65 75.91 270.28 81.63"/><polygon class="cls-7" points="279.08 90.33 228.4 140.88 224.57 137.05 276.94 85.74 283.44 84.62 279.08 90.33"/><polygon class="cls-7" points="288.18 99.24 237.5 149.78 233.68 145.96 286.05 94.65 292.55 93.52 288.18 99.24"/><polygon class="cls-2" points="100.58 146.75 109.92 137.44 120.44 148.37 103.04 166.58 97.57 149.78 100.58 146.75"/><polygon class="cls-1" points="110.82 157.66 120.29 148.25 130.96 159.3 113.31 177.71 102.63 166.46 110.82 157.66"/><polygon class="cls-1" points="132.35 179.53 141.69 170.22 152.21 181.15 134.81 199.36 124.28 188.23 132.35 179.53"/><polygon class="cls-1" points="153.23 200.98 163.22 191.67 174.47 202.6 155.86 220.82 144.6 209.69 153.23 200.98"/><polygon class="cls-2" points="121.31 168.6 130.89 159.29 141.69 170.22 123.83 188.44 113.03 177.31 121.31 168.6"/><polygon class="cls-2" points="142.08 190.26 152.08 180.95 163.34 191.88 144.71 210.09 133.44 198.96 142.08 190.26"/><polygon class="cls-2" points="165.14 211.71 174.47 202.4 185 213.33 167.59 231.54 157.07 220.41 165.14 211.71"/><circle cx="126.49" cy="142.91" r="5.34"/><circle cx="147.03" cy="164.63" r="5.34"/><circle cx="168.68" cy="186.29" r="5.34"/><path d="m186.77,0c-48.39,0-89.95,29.21-108.02,70.96h14.26c2.76,0,5,2.26,5,5.04s-2.24,5.04-5,5.04h-18.09c-1.08,3.29-2.02,6.64-2.81,10.05h5.76c2.76,0,5,2,5,4.48s-2.24,4.48-5,4.48h-7.46c-.49,3.29-.85,6.63-1.06,10h15.89c2.76,0,5,2.17,5,4.84s-2.24,4.84-5,4.84h-16.12c.06,3.37.25,6.71.59,10.01h2.69c2.76,0,5,2.17,5,4.85s-2.24,4.85-5,4.85h-1.28c.62,3.32,1.38,6.59,2.27,9.8h16.52c2.76,0,5,2.24,5,5s-2.24,5-5,5h-13.24c16.8,44.47,59.76,76.1,110.11,76.1,64.99,0,117.67-52.68,117.67-117.67S251.76,0,186.77,0Zm0,208.61c-50.22,0-90.94-40.71-90.94-90.94S136.55,26.73,186.77,26.73s90.94,40.71,90.94,90.94-40.71,90.94-90.94,90.94Z"/><path d="m84.62,70.96h-45.66c-2.76,0-5-2.46-5-5.48s2.24-5.48,5-5.48h45.66c2.76,0,5,2.46,5,5.48s-2.24,5.48-5,5.48Z"/><path d="m86.33,110.04H5.06c-2.8,0-5.06-2.24-5.06-5s2.27-5,5.06-5h81.27c2.8,0,5.06,2.24,5.06,5s-2.27,5-5.06,5Z"/><path d="m76.53,149.23H15.85c-2.76,0-5-2.24-5-5s2.24-5,5-5h60.68c2.76,0,5,2.24,5,5s-2.24,5-5,5Z"/><path d="m89.23,129.73H28.55c-2.76,0-5-2.24-5-5s2.24-5,5-5h60.68c2.76,0,5,2.24,5,5s-2.24,5-5,5Z"/><path d="m85.74,91.14H29.01c-2.76,0-5-2.24-5-5s2.24-5,5-5h56.73c2.76,0,5,2.24,5,5s-2.24,5-5,5Z"/></g><g id="Tekst"><g><path d="m324.31,61.62h5.51v39.25h-5.51v-39.25Zm2.75,34.01h22.46v5.24h-22.46v-5.24Z"/><path d="m356,61.62h5.51v39.25h-5.51v-39.25Zm2.67,0h22.54v5.24h-22.54v-5.24Zm0,17.14h19.57v5.24h-19.57v-5.24Zm0,16.87h22.54v5.24h-22.54v-5.24Z"/><path d="m394.83,99.56c-2.06-1.14-3.63-2.81-4.71-4.99-1.08-2.19-1.62-4.82-1.62-7.9v-25.05h5.51v25.24c0,2.86.72,5.07,2.16,6.64,1.44,1.57,3.47,2.35,6.1,2.35s4.69-.78,6.14-2.35c1.45-1.57,2.17-3.78,2.17-6.64v-25.24h5.51v25.05c0,3.08-.54,5.71-1.62,7.9-1.08,2.19-2.66,3.85-4.72,4.99-2.07,1.14-4.56,1.71-7.48,1.71s-5.38-.57-7.44-1.71Z"/><path d="m421.22,61.62h5.99l9.42,30.77,9.42-30.77h5.99l-12.79,39.25h-5.24l-12.79-39.25Z"/><path d="m457.98,61.62h5.51v39.25h-5.51v-39.25Zm2.67,0h22.54v5.24h-22.54v-5.24Zm0,17.14h19.57v5.24h-19.57v-5.24Zm0,16.87h22.54v5.24h-22.54v-5.24Z"/><path d="m491.02,61.62h4.99l19.19,30.34-.65.7v-31.04h5.45v39.22h-5.05l-19.14-29.88.65-.7v30.61l-5.45-.03v-39.22Z"/><path d="m324.31,118.79h5.51v39.28h-5.51v-39.28Zm2.4,17.44h13.39c1.04,0,1.97-.25,2.78-.76.81-.5,1.43-1.22,1.88-2.15.44-.93.66-1.99.66-3.2s-.22-2.27-.66-3.2c-.44-.93-1.06-1.64-1.86-2.15-.8-.5-1.73-.76-2.79-.76h-13.39v-5.24h13.17c2.27,0,4.26.47,5.98,1.4,1.72.94,3.05,2.26,4,3.98.94,1.72,1.42,3.7,1.42,5.95s-.48,4.23-1.43,5.95c-.95,1.72-2.29,3.05-4.01,3.98-1.72.94-3.7,1.4-5.95,1.4h-13.17v-5.24Zm10.69,4.02l5.48-1.24,10.04,19.06h-6.53l-8.99-17.82Z"/><path d="m360.35,118.81h5.51v39.25h-5.51v-39.25Zm2.67,0h22.54v5.24h-22.54v-5.24Zm0,17.14h19.57v5.24h-19.57v-5.24Zm0,16.87h22.54v5.24h-22.54v-5.24Z"/><path d="m399.07,156.66c-2.06-1.21-3.66-2.92-4.79-5.13-1.13-2.21-1.7-4.78-1.7-7.69v-10.77c0-2.92.57-5.48,1.7-7.69,1.13-2.21,2.73-3.93,4.79-5.14s4.45-1.82,7.17-1.82c2.25,0,4.32.48,6.21,1.44,1.89.96,3.47,2.33,4.74,4.09s2.13,3.81,2.58,6.13h-5.64c-.34-1.22-.91-2.32-1.71-3.28-.8-.96-1.74-1.71-2.82-2.23-1.08-.52-2.2-.78-3.35-.78-1.6,0-3.01.39-4.21,1.16-1.21.77-2.14,1.86-2.81,3.25s-1,3.02-1,4.87v10.77c0,1.84.33,3.46,1,4.86s1.6,2.49,2.81,3.25c1.21.77,2.61,1.15,4.21,1.15,1.17,0,2.29-.24,3.36-.73s2.01-1.21,2.81-2.16c.8-.95,1.37-2.09,1.71-3.4h5.64c-.45,2.32-1.31,4.36-2.59,6.13-1.28,1.76-2.86,3.13-4.75,4.09s-3.95,1.44-6.18,1.44c-2.72,0-5.11-.6-7.17-1.81Z"/><path d="m432.26,156.67c-2.09-1.2-3.7-2.89-4.85-5.07s-1.71-4.72-1.71-7.6v-11.12c0-2.88.57-5.41,1.71-7.6s2.76-3.88,4.85-5.07,4.5-1.79,7.23-1.79,5.15.6,7.23,1.79c2.09,1.2,3.7,2.89,4.84,5.07s1.71,4.72,1.71,7.6v11.12c0,2.88-.57,5.41-1.71,7.6s-2.76,3.88-4.84,5.07c-2.09,1.2-4.5,1.79-7.23,1.79s-5.15-.6-7.23-1.79Zm11.51-4.72c1.23-.73,2.19-1.76,2.86-3.1.67-1.34,1.01-2.89,1.01-4.66v-11.5c0-1.76-.34-3.32-1.01-4.66-.67-1.34-1.63-2.38-2.86-3.1-1.23-.73-2.66-1.09-4.28-1.09s-3.05.36-4.28,1.09c-1.23.73-2.19,1.76-2.86,3.1-.67,1.34-1.01,2.89-1.01,4.66v11.5c0,1.76.34,3.32,1.01,4.66.67,1.34,1.63,2.38,2.86,3.1,1.23.73,2.66,1.09,4.28,1.09s3.05-.36,4.28-1.09Z"/><path d="m461.65,118.79h5.51v39.28h-5.51v-39.28Zm2.4,17.44h13.39c1.04,0,1.97-.25,2.78-.76.81-.5,1.43-1.22,1.88-2.15.44-.93.66-1.99.66-3.2s-.22-2.27-.66-3.2c-.44-.93-1.06-1.64-1.86-2.15-.8-.5-1.73-.76-2.79-.76h-13.39v-5.24h13.17c2.27,0,4.26.47,5.98,1.4,1.72.94,3.05,2.26,4,3.98.94,1.72,1.42,3.7,1.42,5.95s-.48,4.23-1.43,5.95c-.95,1.72-2.29,3.05-4.01,3.98-1.72.94-3.7,1.4-5.95,1.4h-13.17v-5.24Zm10.69,4.02l5.48-1.24,10.04,19.06h-6.53l-8.99-17.82Z"/><path d="m497.69,118.81h5.51v39.25h-5.51v-39.25Zm3.73,34.01h8.88c2.9,0,5.14-.75,6.73-2.25,1.59-1.5,2.39-3.62,2.39-6.36v-11.55c0-2.74-.8-4.85-2.39-6.36-1.59-1.5-3.84-2.25-6.73-2.25h-8.88v-5.24h8.72c3.15,0,5.84.55,8.07,1.65,2.23,1.1,3.93,2.7,5.1,4.8s1.75,4.64,1.75,7.61v11.12c0,2.97-.58,5.51-1.75,7.61s-2.88,3.71-5.12,4.81-4.94,1.65-8.08,1.65h-8.69v-5.24Z"/><path d="m539.32,157.93c-1.69-.36-3.27-.9-4.74-1.62s-2.84-1.62-4.12-2.7l3.43-4.21c1.49,1.3,3.14,2.27,4.94,2.92,1.8.65,3.75.97,5.86.97,2.84,0,5.05-.53,6.61-1.58s2.35-2.54,2.35-4.47v-.03c0-1.37-.36-2.45-1.07-3.25s-1.63-1.39-2.75-1.78c-1.12-.39-2.58-.74-4.36-1.07-.05-.02-.11-.03-.17-.03s-.12,0-.18-.03l-.41-.08c-2.63-.45-4.76-.96-6.41-1.52-1.65-.57-3.06-1.6-4.22-3.1-1.17-1.5-1.75-3.64-1.75-6.41v-.03c0-2.43.54-4.5,1.63-6.22,1.09-1.72,2.68-3.03,4.76-3.93,2.09-.9,4.6-1.35,7.53-1.35,1.4,0,2.78.15,4.14.46,1.36.31,2.7.76,4.02,1.36,1.32.6,2.62,1.36,3.9,2.28l-3.13,4.37c-1.49-1.1-2.98-1.92-4.47-2.47-1.49-.55-2.97-.82-4.47-.82-2.68,0-4.76.54-6.25,1.61-1.48,1.07-2.23,2.59-2.23,4.55v.03c0,1.35.38,2.41,1.15,3.19.76.77,1.72,1.35,2.86,1.71,1.14.37,2.73.75,4.76,1.15.07.02.14.03.2.04.06,0,.13.02.2.04.09.02.19.04.3.05.11.02.21.04.3.05,2.38.49,4.36,1.06,5.95,1.73,1.59.67,2.92,1.74,4,3.23,1.07,1.48,1.61,3.51,1.61,6.09v.05c0,2.39-.57,4.44-1.7,6.14s-2.78,3-4.93,3.89c-2.15.89-4.75,1.34-7.79,1.34-1.89,0-3.68-.18-5.37-.54Z"/></g></g></svg>